<svg id="Camada_1" data-name="Camada 1" xmlns="http://www.w3.org/2000/svg" xmlns:xlink="http://www.w3.org/1999/xlink" viewBox="0 0 129.5 110.14"><defs><style>.cls-1{fill:none;}.cls-2{clip-path:url(#clip-path);}.cls-3{fill:#fff;}.cls-4{fill:#2284b6;}</style><clipPath id="clip-path"><rect class="cls-1" x="-0.72" y="27.9" width="144.44" height="101.69" transform="translate(-19.37 23.46) rotate(-16.44)"/></clipPath></defs><title>logowhite</title><g class="cls-2"><rect class="cls-3" x="39.96" y="4.04" width="22.12" height="66.35"/><rect class="cls-3" x="13.84" y="4.04" width="22.12" height="66.35"/><rect class="cls-3" x="65.97" y="4.04" width="22.12" height="66.35"/><rect class="cls-3" x="91.99" y="4.04" width="22.12" height="66.35"/><path class="cls-3" d="M70.86,90A4.6,4.6,0,0,1,70,89.87q-0.36-.1-0.66-0.22a4.74,4.74,0,0,1-2.24-2.16,7.39,7.39,0,0,1-.79-3.5,7.2,7.2,0,0,1,.3-2.09,6.53,6.53,0,0,1,.84-1.8,5.55,5.55,0,0,1,1.32-1.37,5.13,5.13,0,0,1,1.72-.82,7.27,7.27,0,0,1,1.78-.21l1,0a5.09,5.09,0,0,1,.85.14,0.83,0.83,0,0,1,.43-0.16l0.64,0H76.5a1,1,0,0,1,.53.14,0.6,0.6,0,0,1,.23.43,6.3,6.3,0,0,1,0,.88V87.4h0.48a0.68,0.68,0,0,1,.52.21,0.72,0.72,0,0,1,.2.51v1a0.77,0.77,0,0,1-.09.41,0.79,0.79,0,0,1-.42.27h0l-0.28.08-0.51.1q-0.3,0-.68.07a6.68,6.68,0,0,1-.77,0,2,2,0,0,1-1.43-.6,6,6,0,0,1-.6.26,5.92,5.92,0,0,1-2.24.39H71.17l-0.28,0h0Zm0.58-3a2.44,2.44,0,0,0,.68,0,6,6,0,0,0,1.07-.23l0.45-.17,0.24-.1V80.86l-0.74-.08q-0.42,0-.88,0a2.14,2.14,0,0,0-1.24.32,2.22,2.22,0,0,0-.74.86,3.86,3.86,0,0,0-.36,1.21,6.74,6.74,0,0,0,0,1.37q0,0.44.08,0.86a2.32,2.32,0,0,0,.23.75,1.74,1.74,0,0,0,.46.57A1.57,1.57,0,0,0,71.44,87Z"/><path class="cls-3" d="M81.56,96.12l-0.82,0a0.71,0.71,0,0,1-.44-0.16,0.67,0.67,0,0,1-.18-0.43,7.43,7.43,0,0,1,0-.82V80.81H79.55a0.68,0.68,0,0,1-.72-0.72v-1a0.92,0.92,0,0,1,.07-0.3A0.77,0.77,0,0,1,79,78.56a4.3,4.3,0,0,1,.65-0.44,3.83,3.83,0,0,1,.77-0.33,3.56,3.56,0,0,1,1.05-.14,2,2,0,0,1,.88.19,2.28,2.28,0,0,1,.65.44l0.6-.26a6,6,0,0,1,2.26-.39h0A5.76,5.76,0,0,1,88,78a4.81,4.81,0,0,1,2.25,2.16,7.4,7.4,0,0,1,.77,3.5,7.22,7.22,0,0,1-.4,2.44,7.07,7.07,0,0,1-1,1.95,3.94,3.94,0,0,1-1.41,1.19,7.43,7.43,0,0,1-1.32.5,5,5,0,0,1-.87.15q-0.43,0-.91,0H84.26a3.41,3.41,0,0,1-.6,0l-0.09,0-0.09,0v4.85a4.49,4.49,0,0,1-.06.82,0.7,0.7,0,0,1-.23.43,0.9,0.9,0,0,1-.51.16l-0.87,0H81.56Zm4.36-15.45a3.33,3.33,0,0,0-.72,0,2.79,2.79,0,0,0-1,.28,3.39,3.39,0,0,0-.72.39v5.52q0.3,0,.72.07l0.88,0a2.13,2.13,0,0,0,1.11-.19,1.65,1.65,0,0,0,.69-0.6,3.26,3.26,0,0,0,.39-0.88,5.45,5.45,0,0,0,.18-1,8,8,0,0,0,0-1q0-.44-0.08-0.87a2.7,2.7,0,0,0-.22-0.78A1.55,1.55,0,0,0,86.71,81,1.65,1.65,0,0,0,85.92,80.67Z"/><path class="cls-3" d="M94.07,96.12l-0.82,0a0.71,0.71,0,0,1-.44-0.16,0.67,0.67,0,0,1-.18-0.43,7.43,7.43,0,0,1,0-.82V80.81H92.06a0.68,0.68,0,0,1-.72-0.72v-1a0.92,0.92,0,0,1,.07-0.3,0.77,0.77,0,0,1,.12-0.23,4.3,4.3,0,0,1,.65-0.44A3.83,3.83,0,0,1,93,77.79,3.56,3.56,0,0,1,94,77.66a2,2,0,0,1,.88.19,2.28,2.28,0,0,1,.65.44l0.6-.26a6,6,0,0,1,2.26-.39h0a5.76,5.76,0,0,1,2.06.39,4.81,4.81,0,0,1,2.25,2.16,7.4,7.4,0,0,1,.77,3.5,7.22,7.22,0,0,1-.4,2.44,7.07,7.07,0,0,1-1,1.95,3.94,3.94,0,0,1-1.41,1.19,7.43,7.43,0,0,1-1.32.5,5,5,0,0,1-.87.15q-0.43,0-.91,0H96.78a3.41,3.41,0,0,1-.6,0l-0.09,0-0.09,0v4.85a4.49,4.49,0,0,1-.06.82,0.7,0.7,0,0,1-.23.43,0.9,0.9,0,0,1-.51.16l-0.87,0H94.07Zm4.36-15.45a3.33,3.33,0,0,0-.72,0,2.79,2.79,0,0,0-1,.28,3.39,3.39,0,0,0-.72.39v5.52q0.3,0,.72.07l0.88,0a2.13,2.13,0,0,0,1.11-.19,1.65,1.65,0,0,0,.69-0.6,3.26,3.26,0,0,0,.39-0.88,5.45,5.45,0,0,0,.18-1,8,8,0,0,0,0-1q0-.44-0.08-0.87a2.7,2.7,0,0,0-.22-0.78A1.55,1.55,0,0,0,99.22,81,1.65,1.65,0,0,0,98.44,80.67Z"/><path class="cls-3" d="M109,80.72a2.14,2.14,0,0,0-1.25.16,0.61,0.61,0,0,0-.32.63,0.44,0.44,0,0,0,.42.35,6,6,0,0,0,.67.15l0.74,0.13q0.88,0.14,1.74.36a5.52,5.52,0,0,1,1.42.55,3.26,3.26,0,0,1,1.17,1.09A3.53,3.53,0,0,1,114,86a6,6,0,0,1-.21,1.76,3.45,3.45,0,0,1-.85,1.31,3.83,3.83,0,0,1-1.52.89,6.82,6.82,0,0,1-1.89.21,15.47,15.47,0,0,1-1.92-.13,13.11,13.11,0,0,1-2-.41,6.31,6.31,0,0,1-1.1-.43,0.69,0.69,0,0,1-.36-0.66,2.54,2.54,0,0,1,.18-0.81,5,5,0,0,1,.51-1,0.73,0.73,0,0,1,.62-0.28,2.15,2.15,0,0,1,.42,0l0.51,0.12q0.88,0.19,1.67.3a9.82,9.82,0,0,0,1.4.12l0.66,0a0.84,0.84,0,0,0,.37-0.1,0.39,0.39,0,0,0,.16-0.28,3.33,3.33,0,0,0,0-.55,0.39,0.39,0,0,0-.09-0.27,1,1,0,0,0-.39-0.21,6.19,6.19,0,0,0-.87-0.21l-1.49-.29a4.94,4.94,0,0,1-2.3-1,3.32,3.32,0,0,1-1.17-1.8,1.72,1.72,0,0,1-.06-0.38c0-.15,0-0.3,0-0.45a3.64,3.64,0,0,1,.95-2.58,4.13,4.13,0,0,1,3.33-1.23,16.28,16.28,0,0,1,3.79.44l0.3,0.07a1,1,0,0,1,.68.41,1.31,1.31,0,0,1,.17.68,2.38,2.38,0,0,1,0,.46q0,0.23-.14.53a5.66,5.66,0,0,1-.28.74,0.59,0.59,0,0,1-.58.23,2.85,2.85,0,0,1-.69-0.09q-0.67-.14-1.36-0.24T109,80.72Z"/><path class="cls-4" d="M26.05,61.67H25.51q-1.18,0-1.9,0a8.17,8.17,0,0,1-1-.09H22.58v0a0.14,0.14,0,0,1-.08.05V67a5.63,5.63,0,0,1-.06,1,0.8,0.8,0,0,1-.26.5,1,1,0,0,1-.55.18q-0.36,0-1,0H20.37q-0.59,0-1,0a1.07,1.07,0,0,1-.58-0.18,0.82,0.82,0,0,1-.28-0.5,4.69,4.69,0,0,1-.08-1V52.54a2.82,2.82,0,0,1-.88-0.5,1.44,1.44,0,0,1-.44-0.6V50.17a0.76,0.76,0,0,1,.23-0.58A0.83,0.83,0,0,1,18,49.37h8.08a7,7,0,0,1,4.75,1.38,5.35,5.35,0,0,1,1.53,4.18V56.3Q32.33,61.68,26.05,61.67Zm-0.18-3.78q2.29,0,2.29-2V55.11q0-2-2.29-2H22.5v4.58a11.18,11.18,0,0,0,2,.18h1.34Z"/><path class="cls-4" d="M47.13,68.65a5.22,5.22,0,0,1-1-.08,0.83,0.83,0,0,1-.51-0.28,1,1,0,0,1-.17-0.58q0-.37,0-1t0-.86a0.9,0.9,0,0,1,.19-0.54,0.92,0.92,0,0,1,.51-0.27,4.83,4.83,0,0,1,1-.08h1.52V53H47.11a5.22,5.22,0,0,1-1-.08,0.83,0.83,0,0,1-.51-0.28,1,1,0,0,1-.17-0.57q0-.36,0-1t0-.86a1,1,0,0,1,.19-0.55,0.88,0.88,0,0,1,.51-0.28,4.85,4.85,0,0,1,1-.08h7.18a4.85,4.85,0,0,1,1,.08,0.89,0.89,0,0,1,.51.28,1,1,0,0,1,.19.55q0,0.35,0,.86v0.23q0,0.52,0,.84a0.81,0.81,0,0,1-.19.5,0.91,0.91,0,0,1-.51.24,5.8,5.8,0,0,1-1,.06h-1.6V65h1.57a4.84,4.84,0,0,1,1,.08,0.92,0.92,0,0,1,.51.27,0.91,0.91,0,0,1,.19.54q0,0.35,0,.86V67q0,0.52,0,.84a0.77,0.77,0,0,1-.71.77,5.8,5.8,0,0,1-1,.06H47.13Z"/><path class="cls-4" d="M85.1,67.17a4.14,4.14,0,0,1-.08.91,1,1,0,0,1-.27.5,0.9,0.9,0,0,1-.53.22,7.93,7.93,0,0,1-.88,0H82.5a1.35,1.35,0,0,1-.5-0.14,2.29,2.29,0,0,1-.58-0.42,7.36,7.36,0,0,1-.72-0.84q-0.26-.33-0.9-1.29l-1.53-2.25-1.92-2.82-2-3v9.11a7,7,0,0,1-.05,1,0.68,0.68,0,0,1-.73.68q-0.35,0-1,0H72.29q-0.62,0-1,0a1.17,1.17,0,0,1-.6-0.18,0.84,0.84,0,0,1-.31-0.5,4,4,0,0,1-.09-1l0-14.26H69.71a0.84,0.84,0,0,1-.85-0.85V50.93A1.08,1.08,0,0,1,69,50.57a1,1,0,0,1,.14-0.28,4.33,4.33,0,0,1,.75-0.49,4.11,4.11,0,0,1,.9-0.36A4.61,4.61,0,0,1,72,49.28a2.29,2.29,0,0,1,1.15.27,2.92,2.92,0,0,1,.78.63L81,61v-9.7a4.16,4.16,0,0,1,.09-1,0.84,0.84,0,0,1,.31-0.5,1.18,1.18,0,0,1,.6-0.18q0.39,0,1,0h1.11a1.16,1.16,0,0,1,.63.17,0.75,0.75,0,0,1,.28.5,6,6,0,0,1,.06,1V67.17Z"/><path class="cls-4" d="M100.62,68.14a5.46,5.46,0,0,1-2-1.21,4.39,4.39,0,0,1-1.11-1.76A6.71,6.71,0,0,1,97.13,63V52.47A2.24,2.24,0,0,1,96.22,52a1.56,1.56,0,0,1-.42-0.62V50.11A0.76,0.76,0,0,1,96,49.53a0.83,0.83,0,0,1,.59-0.22h11.63a4.85,4.85,0,0,1,1,.08,0.82,0.82,0,0,1,.5.28,1,1,0,0,1,.18.54q0,0.33,0,.88v0.15q0,0.52,0,.86a1.11,1.11,0,0,1-.18.57,0.9,0.9,0,0,1-.5.32,3.67,3.67,0,0,1-1,.1H101.2v3.73h5.71a4.18,4.18,0,0,1,1,.09,0.91,0.91,0,0,1,.51.31,1,1,0,0,1,.19.57q0,0.35,0,.86v0.23q0,0.49,0,.82a1,1,0,0,1-.19.55,0.91,0.91,0,0,1-.51.31,4.17,4.17,0,0,1-1,.09H101.2V63.1a1.39,1.39,0,0,0,.24.86,1.7,1.7,0,0,0,.67.51,3.3,3.3,0,0,0,1,.26,11.33,11.33,0,0,0,1.25.06h3.89a4.19,4.19,0,0,1,1,.09,0.88,0.88,0,0,1,.5.3,1,1,0,0,1,.18.54q0,0.33,0,.85v0.15q0,0.52,0,.86a1.11,1.11,0,0,1-.18.57,0.9,0.9,0,0,1-.5.32,3.67,3.67,0,0,1-1,.1h-4.48A9.54,9.54,0,0,1,100.62,68.14Z"/></g></svg>